<mxfile host="app.diagrams.net" agent="Mozilla/5.0 (Windows NT 10.0; Win64; x64) AppleWebKit/537.36 (KHTML, like Gecko) Chrome/136.0.0.0 Safari/537.36" version="27.1.1">
  <diagram name="Страница — 1" id="wwPoMx3cxyXaC1SB2MYG">
    <mxGraphModel dx="1042" dy="562" grid="1" gridSize="10" guides="1" tooltips="1" connect="1" arrows="1" fold="1" page="1" pageScale="1" pageWidth="827" pageHeight="1169" math="0" shadow="0">
      <root>
        <mxCell id="0" />
        <mxCell id="1" parent="0" />
        <mxCell id="8BobWnbbbrY5wy3T_eff-1" value="&lt;font&gt;API and Ex&lt;/font&gt;cipient" style="ellipse;whiteSpace=wrap;html=1;fillColor=light-dark(#FFFFFF,#3333FF);fontFamily=Times New Roman;" vertex="1" parent="1">
          <mxGeometry x="40" y="40" width="120" height="80" as="geometry" />
        </mxCell>
        <mxCell id="8BobWnbbbrY5wy3T_eff-2" value="&lt;font&gt;Milling S&lt;/font&gt;ettings" style="ellipse;whiteSpace=wrap;html=1;fillColor=light-dark(#FFFFFF,#3333FF);fontFamily=Times New Roman;" vertex="1" parent="1">
          <mxGeometry x="40" y="160" width="120" height="80" as="geometry" />
        </mxCell>
        <mxCell id="8BobWnbbbrY5wy3T_eff-3" value="Blending Settings" style="ellipse;whiteSpace=wrap;html=1;fillColor=light-dark(#FFFFFF,#3333FF);fontFamily=Times New Roman;" vertex="1" parent="1">
          <mxGeometry x="40" y="280" width="120" height="80" as="geometry" />
        </mxCell>
        <mxCell id="8BobWnbbbrY5wy3T_eff-4" value="Granulation Parameters" style="ellipse;whiteSpace=wrap;html=1;fillColor=light-dark(#FFFFFF,#3333FF);fontFamily=Times New Roman;" vertex="1" parent="1">
          <mxGeometry x="40" y="400" width="120" height="80" as="geometry" />
        </mxCell>
        <mxCell id="8BobWnbbbrY5wy3T_eff-5" value="Drying Parameters" style="ellipse;whiteSpace=wrap;html=1;fillColor=light-dark(#FFFFFF,#3333FF);fontFamily=Times New Roman;" vertex="1" parent="1">
          <mxGeometry x="40" y="520" width="120" height="80" as="geometry" />
        </mxCell>
        <mxCell id="8BobWnbbbrY5wy3T_eff-6" value="Compression Settings" style="ellipse;whiteSpace=wrap;html=1;fillColor=light-dark(#FFFFFF,#3333FF);fontFamily=Times New Roman;" vertex="1" parent="1">
          <mxGeometry x="40" y="640" width="120" height="80" as="geometry" />
        </mxCell>
        <mxCell id="8BobWnbbbrY5wy3T_eff-7" value="&lt;div&gt;Coating Parameters&lt;/div&gt;" style="ellipse;whiteSpace=wrap;html=1;fillColor=light-dark(#FFFFFF,#3333FF);fontFamily=Times New Roman;" vertex="1" parent="1">
          <mxGeometry x="40" y="760" width="120" height="80" as="geometry" />
        </mxCell>
        <mxCell id="8BobWnbbbrY5wy3T_eff-84" style="rounded=0;orthogonalLoop=1;jettySize=auto;html=1;exitX=1;exitY=1;exitDx=0;exitDy=0;entryX=0;entryY=0;entryDx=0;entryDy=0;" edge="1" parent="1" source="8BobWnbbbrY5wy3T_eff-8" target="8BobWnbbbrY5wy3T_eff-15">
          <mxGeometry relative="1" as="geometry">
            <mxPoint x="410" y="250" as="targetPoint" />
          </mxGeometry>
        </mxCell>
        <mxCell id="8BobWnbbbrY5wy3T_eff-8" value="Granule Size" style="ellipse;whiteSpace=wrap;html=1;fillColor=light-dark(#FFFFFF,#999900);fontFamily=Times New Roman;" vertex="1" parent="1">
          <mxGeometry x="320" y="120" width="120" height="80" as="geometry" />
        </mxCell>
        <mxCell id="8BobWnbbbrY5wy3T_eff-9" value="Blend Uniformity" style="ellipse;whiteSpace=wrap;html=1;fillColor=light-dark(#FFFFFF,#999900);fontFamily=Times New Roman;" vertex="1" parent="1">
          <mxGeometry x="320" y="280" width="120" height="80" as="geometry" />
        </mxCell>
        <mxCell id="8BobWnbbbrY5wy3T_eff-10" value="&lt;span style=&quot;line-height: 107%;&quot;&gt;Moisture Content (Intermediate&lt;/span&gt;" style="ellipse;whiteSpace=wrap;html=1;fillColor=light-dark(#FFFFFF,#999900);fontFamily=Times New Roman;fontSize=12;" vertex="1" parent="1">
          <mxGeometry x="320" y="440" width="120" height="80" as="geometry" />
        </mxCell>
        <mxCell id="8BobWnbbbrY5wy3T_eff-12" value="Tablet Hardness" style="ellipse;whiteSpace=wrap;html=1;fillColor=light-dark(#FFFFFF,#00FF00);fontFamily=Times New Roman;" vertex="1" parent="1">
          <mxGeometry x="680" y="440" width="120" height="80" as="geometry" />
        </mxCell>
        <mxCell id="8BobWnbbbrY5wy3T_eff-13" value="Assay" style="ellipse;whiteSpace=wrap;html=1;fillColor=light-dark(#FFFFFF,#00FF00);fontFamily=Times New Roman;" vertex="1" parent="1">
          <mxGeometry x="680" y="80" width="120" height="80" as="geometry" />
        </mxCell>
        <mxCell id="8BobWnbbbrY5wy3T_eff-14" value="Content Uniformity" style="ellipse;whiteSpace=wrap;html=1;fillColor=light-dark(#FFFFFF,#00FF00);fontFamily=Times New Roman;" vertex="1" parent="1">
          <mxGeometry x="680" y="280" width="120" height="80" as="geometry" />
        </mxCell>
        <mxCell id="8BobWnbbbrY5wy3T_eff-15" value="Dissolution rate" style="ellipse;whiteSpace=wrap;html=1;fillColor=light-dark(#FFFFFF,#00FF00);fontFamily=Times New Roman;" vertex="1" parent="1">
          <mxGeometry x="680" y="760" width="120" height="80" as="geometry" />
        </mxCell>
        <mxCell id="8BobWnbbbrY5wy3T_eff-16" value="&lt;div&gt;Packaging Humidity&lt;/div&gt;" style="ellipse;whiteSpace=wrap;html=1;fillColor=light-dark(#FFFFFF,#3333FF);fontFamily=Times New Roman;" vertex="1" parent="1">
          <mxGeometry x="40" y="880" width="120" height="80" as="geometry" />
        </mxCell>
        <mxCell id="8BobWnbbbrY5wy3T_eff-18" style="edgeStyle=orthogonalEdgeStyle;rounded=0;orthogonalLoop=1;jettySize=auto;html=1;exitX=0.5;exitY=1;exitDx=0;exitDy=0;" edge="1" parent="1" source="8BobWnbbbrY5wy3T_eff-12" target="8BobWnbbbrY5wy3T_eff-12">
          <mxGeometry relative="1" as="geometry" />
        </mxCell>
        <mxCell id="8BobWnbbbrY5wy3T_eff-19" value="Powder floability" style="ellipse;whiteSpace=wrap;html=1;fillColor=light-dark(#FFFFFF,#999900);fontFamily=Times New Roman;fontSize=12;" vertex="1" parent="1">
          <mxGeometry x="330" y="710" width="120" height="80" as="geometry" />
        </mxCell>
        <mxCell id="8BobWnbbbrY5wy3T_eff-20" value="Tablet weight variation" style="ellipse;whiteSpace=wrap;html=1;fillColor=light-dark(#FFFFFF,#00FF00);fontFamily=Times New Roman;fontSize=12;" vertex="1" parent="1">
          <mxGeometry x="680" y="560" width="120" height="80" as="geometry" />
        </mxCell>
        <mxCell id="8BobWnbbbrY5wy3T_eff-64" value="" style="endArrow=classic;html=1;rounded=0;exitX=1;exitY=0.5;exitDx=0;exitDy=0;entryX=0;entryY=0.5;entryDx=0;entryDy=0;" edge="1" parent="1" source="8BobWnbbbrY5wy3T_eff-2" target="8BobWnbbbrY5wy3T_eff-8">
          <mxGeometry width="50" height="50" relative="1" as="geometry">
            <mxPoint x="260" y="270" as="sourcePoint" />
            <mxPoint x="310" y="220" as="targetPoint" />
          </mxGeometry>
        </mxCell>
        <mxCell id="8BobWnbbbrY5wy3T_eff-65" value="" style="endArrow=classic;html=1;rounded=0;exitX=1;exitY=0.5;exitDx=0;exitDy=0;entryX=0;entryY=0.5;entryDx=0;entryDy=0;" edge="1" parent="1" source="8BobWnbbbrY5wy3T_eff-3" target="8BobWnbbbrY5wy3T_eff-9">
          <mxGeometry width="50" height="50" relative="1" as="geometry">
            <mxPoint x="150" y="320" as="sourcePoint" />
            <mxPoint x="310" y="280" as="targetPoint" />
          </mxGeometry>
        </mxCell>
        <mxCell id="8BobWnbbbrY5wy3T_eff-67" value="" style="endArrow=classic;html=1;rounded=0;entryX=0;entryY=1;entryDx=0;entryDy=0;exitX=0.5;exitY=0;exitDx=0;exitDy=0;" edge="1" parent="1" source="8BobWnbbbrY5wy3T_eff-4" target="8BobWnbbbrY5wy3T_eff-8">
          <mxGeometry width="50" height="50" relative="1" as="geometry">
            <mxPoint x="130" y="400" as="sourcePoint" />
            <mxPoint x="290" y="360" as="targetPoint" />
          </mxGeometry>
        </mxCell>
        <mxCell id="8BobWnbbbrY5wy3T_eff-68" value="" style="endArrow=classic;html=1;rounded=0;exitX=1;exitY=0;exitDx=0;exitDy=0;entryX=0;entryY=0.5;entryDx=0;entryDy=0;" edge="1" parent="1" source="8BobWnbbbrY5wy3T_eff-5" target="8BobWnbbbrY5wy3T_eff-10">
          <mxGeometry width="50" height="50" relative="1" as="geometry">
            <mxPoint x="210" y="610" as="sourcePoint" />
            <mxPoint x="370" y="570" as="targetPoint" />
          </mxGeometry>
        </mxCell>
        <mxCell id="8BobWnbbbrY5wy3T_eff-69" value="" style="endArrow=classic;html=1;rounded=0;exitX=1;exitY=0;exitDx=0;exitDy=0;entryX=0.083;entryY=0.253;entryDx=0;entryDy=0;entryPerimeter=0;" edge="1" parent="1" source="8BobWnbbbrY5wy3T_eff-6" target="8BobWnbbbrY5wy3T_eff-12">
          <mxGeometry width="50" height="50" relative="1" as="geometry">
            <mxPoint x="170" y="700" as="sourcePoint" />
            <mxPoint x="330" y="660" as="targetPoint" />
          </mxGeometry>
        </mxCell>
        <mxCell id="8BobWnbbbrY5wy3T_eff-71" value="" style="endArrow=classic;html=1;rounded=0;exitX=1;exitY=0.5;exitDx=0;exitDy=0;entryX=0;entryY=1;entryDx=0;entryDy=0;" edge="1" parent="1" source="8BobWnbbbrY5wy3T_eff-7" target="8BobWnbbbrY5wy3T_eff-15">
          <mxGeometry width="50" height="50" relative="1" as="geometry">
            <mxPoint x="180" y="840" as="sourcePoint" />
            <mxPoint x="340" y="800" as="targetPoint" />
          </mxGeometry>
        </mxCell>
        <mxCell id="8BobWnbbbrY5wy3T_eff-72" value="" style="endArrow=classic;html=1;rounded=0;exitX=1;exitY=0;exitDx=0;exitDy=0;" edge="1" parent="1" source="8BobWnbbbrY5wy3T_eff-16" target="8BobWnbbbrY5wy3T_eff-15">
          <mxGeometry width="50" height="50" relative="1" as="geometry">
            <mxPoint x="350" y="800" as="sourcePoint" />
            <mxPoint x="510" y="760" as="targetPoint" />
          </mxGeometry>
        </mxCell>
        <mxCell id="8BobWnbbbrY5wy3T_eff-79" value="" style="endArrow=classic;html=1;rounded=0;edgeStyle=orthogonalEdgeStyle;exitX=1;exitY=0.5;exitDx=0;exitDy=0;entryX=1;entryY=0.5;entryDx=0;entryDy=0;" edge="1" parent="1" source="8BobWnbbbrY5wy3T_eff-8" target="8BobWnbbbrY5wy3T_eff-19">
          <mxGeometry width="50" height="50" relative="1" as="geometry">
            <mxPoint x="430" y="400" as="sourcePoint" />
            <mxPoint x="480" y="350" as="targetPoint" />
          </mxGeometry>
        </mxCell>
        <mxCell id="8BobWnbbbrY5wy3T_eff-86" value="" style="endArrow=classic;html=1;rounded=0;exitX=1;exitY=0.5;exitDx=0;exitDy=0;entryX=0.5;entryY=0;entryDx=0;entryDy=0;" edge="1" parent="1" source="8BobWnbbbrY5wy3T_eff-8" target="8BobWnbbbrY5wy3T_eff-12">
          <mxGeometry width="50" height="50" relative="1" as="geometry">
            <mxPoint x="430" y="220" as="sourcePoint" />
            <mxPoint x="640" y="600" as="targetPoint" />
          </mxGeometry>
        </mxCell>
        <mxCell id="8BobWnbbbrY5wy3T_eff-87" value="" style="endArrow=classic;html=1;rounded=0;entryX=0;entryY=0.5;entryDx=0;entryDy=0;exitX=1;exitY=0.5;exitDx=0;exitDy=0;" edge="1" parent="1" source="8BobWnbbbrY5wy3T_eff-9" target="8BobWnbbbrY5wy3T_eff-14">
          <mxGeometry width="50" height="50" relative="1" as="geometry">
            <mxPoint x="430" y="310" as="sourcePoint" />
            <mxPoint x="480" y="260" as="targetPoint" />
          </mxGeometry>
        </mxCell>
        <mxCell id="8BobWnbbbrY5wy3T_eff-88" value="" style="endArrow=classic;html=1;rounded=0;exitX=1;exitY=0.5;exitDx=0;exitDy=0;entryX=0;entryY=0;entryDx=0;entryDy=0;" edge="1" parent="1" source="8BobWnbbbrY5wy3T_eff-10" target="8BobWnbbbrY5wy3T_eff-12">
          <mxGeometry width="50" height="50" relative="1" as="geometry">
            <mxPoint x="430" y="610" as="sourcePoint" />
            <mxPoint x="480" y="560" as="targetPoint" />
          </mxGeometry>
        </mxCell>
        <mxCell id="8BobWnbbbrY5wy3T_eff-90" value="" style="endArrow=classic;html=1;rounded=0;exitX=1;exitY=1;exitDx=0;exitDy=0;entryX=0;entryY=0.5;entryDx=0;entryDy=0;" edge="1" parent="1" source="8BobWnbbbrY5wy3T_eff-10" target="8BobWnbbbrY5wy3T_eff-15">
          <mxGeometry width="50" height="50" relative="1" as="geometry">
            <mxPoint x="430" y="440" as="sourcePoint" />
            <mxPoint x="480" y="390" as="targetPoint" />
          </mxGeometry>
        </mxCell>
        <mxCell id="8BobWnbbbrY5wy3T_eff-92" value="" style="endArrow=classic;html=1;rounded=0;exitX=1;exitY=1;exitDx=0;exitDy=0;entryX=0;entryY=0.5;entryDx=0;entryDy=0;" edge="1" parent="1" source="8BobWnbbbrY5wy3T_eff-19" target="8BobWnbbbrY5wy3T_eff-20">
          <mxGeometry width="50" height="50" relative="1" as="geometry">
            <mxPoint x="470" y="810" as="sourcePoint" />
            <mxPoint x="520" y="760" as="targetPoint" />
          </mxGeometry>
        </mxCell>
        <mxCell id="8BobWnbbbrY5wy3T_eff-93" value="" style="endArrow=classic;html=1;rounded=0;exitX=1;exitY=0.5;exitDx=0;exitDy=0;entryX=0;entryY=0;entryDx=0;entryDy=0;" edge="1" parent="1" source="8BobWnbbbrY5wy3T_eff-1" target="8BobWnbbbrY5wy3T_eff-8">
          <mxGeometry width="50" height="50" relative="1" as="geometry">
            <mxPoint x="280" y="90" as="sourcePoint" />
            <mxPoint x="330" y="40" as="targetPoint" />
          </mxGeometry>
        </mxCell>
        <mxCell id="8BobWnbbbrY5wy3T_eff-94" value="" style="endArrow=classic;html=1;rounded=0;exitX=1;exitY=0.5;exitDx=0;exitDy=0;entryX=0;entryY=0;entryDx=0;entryDy=0;" edge="1" parent="1" source="8BobWnbbbrY5wy3T_eff-6" target="8BobWnbbbrY5wy3T_eff-20">
          <mxGeometry width="50" height="50" relative="1" as="geometry">
            <mxPoint x="430" y="660" as="sourcePoint" />
            <mxPoint x="480" y="610" as="targetPoint" />
          </mxGeometry>
        </mxCell>
        <mxCell id="8BobWnbbbrY5wy3T_eff-96" value="" style="endArrow=classic;html=1;rounded=0;exitX=1;exitY=0;exitDx=0;exitDy=0;entryX=0;entryY=0;entryDx=0;entryDy=0;" edge="1" parent="1" source="8BobWnbbbrY5wy3T_eff-1" target="8BobWnbbbrY5wy3T_eff-13">
          <mxGeometry width="50" height="50" relative="1" as="geometry">
            <mxPoint x="430" y="160" as="sourcePoint" />
            <mxPoint x="480" y="110" as="targetPoint" />
          </mxGeometry>
        </mxCell>
      </root>
    </mxGraphModel>
  </diagram>
</mxfile>
